<?xml version="1.0" encoding="UTF-8"?> <svg xmlns="http://www.w3.org/2000/svg" width="680" height="382"> <path fill="#34495E" d="M0 0h680v382H0z"></path> <g fill="#FFF"> <path d="M168.45 309.28c-3.42 0-6.06 1.28-7.94 3.85-1.87 2.57-2.81 6.15-2.81 10.74 0 9.55 3.58 14.32 10.75 14.32 3 0 6.65-.75 10.93-2.25v7.61a30.35 30.35 0 0 1-11.78 2.2c-6.23 0-11-1.89-14.3-5.67-3.3-3.78-4.95-9.2-4.95-16.27 0-4.45.81-8.36 2.44-11.7 1.62-3.36 3.95-5.92 6.98-7.71s6.6-2.68 10.68-2.68c4.16 0 8.34 1 12.54 3.02l-2.93 7.38a47.91 47.91 0 0 0-4.83-2 14.49 14.49 0 0 0-4.78-.84zM227.36 323.7c0 7.08-1.75 12.53-5.27 16.34s-8.55 5.71-15.11 5.71c-6.57 0-11.6-1.9-15.12-5.71-3.52-3.81-5.27-9.28-5.27-16.4 0-7.14 1.76-12.58 5.28-16.34 3.53-3.76 8.58-5.64 15.17-5.64 6.58 0 11.61 1.9 15.1 5.68 3.48 3.8 5.22 9.24 5.22 16.35zm-31.26 0c0 4.78.91 8.38 2.73 10.8 1.82 2.42 4.53 3.64 8.14 3.64 7.25 0 10.87-4.82 10.87-14.45 0-9.64-3.6-14.47-10.8-14.47-3.62 0-6.35 1.22-8.18 3.65s-2.76 6.04-2.76 10.82zM274.24 345.17H262.7l-18.64-32.4h-.26c.37 5.72.56 9.8.56 12.24v20.16h-8.12v-42.84h11.46l18.6 32.08h.2c-.29-5.56-.43-9.5-.43-11.8v-20.28h8.17v42.84zM301.54 345.17h-9.08v-35.28h-11.63v-7.56h32.34v7.56h-11.63v35.28zM345.99 345.17l-3.1-10.2h-15.62l-3.1 10.2h-9.8l15.12-43.01h11.1l15.18 43H346zm-5.28-17.82c-2.87-9.23-4.48-14.46-4.85-15.67a43.51 43.51 0 0 1-.77-2.87 584.4 584.4 0 0 1-5.54 18.54h11.16zM379.36 309.28c-3.42 0-6.07 1.28-7.94 3.85-1.88 2.57-2.82 6.15-2.82 10.74 0 9.55 3.59 14.32 10.76 14.32 3 0 6.65-.75 10.92-2.25v7.61a30.34 30.34 0 0 1-11.77 2.2c-6.23 0-11-1.89-14.3-5.67-3.3-3.78-4.95-9.2-4.95-16.27 0-4.45.81-8.36 2.43-11.7 1.62-3.36 3.95-5.92 6.99-7.71s6.6-2.68 10.68-2.68c4.16 0 8.34 1 12.54 3.02l-2.93 7.38c-1.6-.76-3.22-1.43-4.84-2s-3.21-.84-4.77-.84zM415.92 345.17h-9.08v-35.28H395.2v-7.56h32.35v7.56h-11.63v35.28zM467.86 345.17l-10.31-33.6h-.27c.37 6.83.56 11.39.56 13.68v19.92h-8.11v-42.83h12.36l10.14 32.75h.17l10.75-32.75h12.37v42.83h-8.47V324.9c0-.96.02-2.07.04-3.32s.17-4.56.4-9.96h-.26l-11.05 33.55h-8.32zM530.97 345.17H506.3v-42.84h24.67v7.44h-15.59v9.4h14.5v7.45h-14.5v11.04h15.59v7.5z"></path> </g> <g fill="#FFF"> <path d="M328.76 95.15a7.6 7.6 0 0 0-5.22 2.3 7.05 7.05 0 0 0-2.12 5.03 7.1 7.1 0 0 0 2.22 5.04 7.52 7.52 0 0 0 5.3 2.05 7.29 7.29 0 0 0 5.18-2.14 7.24 7.24 0 0 0 2.02-5.18v-.09a7.08 7.08 0 0 0-2.16-4.98 7.27 7.27 0 0 0-5.12-2.03h-.1zm-9.6-2.07a13.8 13.8 0 0 1 9.5-4.1h.13a13.4 13.4 0 0 1 9.47 3.74 13.27 13.27 0 0 1 4.05 9.34v.13c.04 3.78-1.4 7.14-3.78 9.58a13.4 13.4 0 0 1-9.51 3.97 13.7 13.7 0 0 1-9.65-3.74 13.27 13.27 0 0 1-4.13-9.43 13.2 13.2 0 0 1 3.92-9.49zM278.36 102.57v-.07a6.99 6.99 0 0 0-2.05-4.98 7.54 7.54 0 0 0-5.1-2.36h-.07a7.4 7.4 0 0 0-5.27 1.95 7.08 7.08 0 0 0-2.28 5v.04a7.13 7.13 0 0 0 1.95 5.15 7.27 7.27 0 0 0 5.1 2.21h.04a7.63 7.63 0 0 0 5.35-1.98 7.07 7.07 0 0 0 2.33-4.96zm6.18.13v.09a13.25 13.25 0 0 1-4.35 9.3 13.78 13.78 0 0 1-9.67 3.6h-.05a13.25 13.25 0 0 1-13.05-13.68V101.95c.1-3.73 1.72-7.03 4.24-9.37a13.54 13.54 0 0 1 9.66-3.6h.11c3.64.14 6.97 1.78 9.34 4.25 2.4 2.5 3.87 5.87 3.77 9.45v.01z"></path> <path stroke="#FFF" stroke-width="3.78" stroke-miterlimit="10" d="M387.55 115.14c-11.18.58-21.62 2.56-31.21 6.3a77.4 77.4 0 0 0-26.08 16.77c-7.87 7.64-13.6 16.12-17.1 25.59-3.52 9.46-4.82 19.95-3.83 31.59l.32 3.8-3.79-.47-7.6-.99c-6-.78-11.73-1.53-17.71-2.03-1.3-.11-2.7-.08-4.03.14a8.86 8.86 0 0 0-2.84.92c-5.45 3.07-11.06 6.64-17.16 10.5-2.25 1.44-4.59 2.92-7.5 4.74l-6.23 3.9 1.6-7.2c.48-2.2.95-4.49 1.4-6.7 1.02-4.97 1.96-9.57 3.3-14.03.52-1.73.7-2.99.39-3.92-.3-.93-1.18-1.86-2.75-2.98-14.38-10.15-24.6-22.87-30.08-37-5.47-14.08-6.21-29.51-1.68-45.16 4.06-13.99 10.98-25.32 20.23-34.35 9.82-9.59 22.23-16.52 36.57-21.2a97.12 97.12 0 0 1 57.3-.78c18.36 5.38 34.87 16.11 46.46 31.25a74.1 74.1 0 0 1 10.1 17.6 72.54 72.54 0 0 1 4.84 20.34l.3 3.2-3.22.17zm-33.46.54c9.28-3.62 19.26-5.69 29.86-6.5a65.6 65.6 0 0 0-4.05-15.44 68.15 68.15 0 0 0-9.28-16.15c-10.78-14.08-26.15-24.06-43.27-29.08a90.99 90.99 0 0 0-53.67.74c-13.46 4.4-25.06 10.85-34.17 19.74-8.5 8.3-14.86 18.73-18.6 31.64-4.15 14.3-3.48 28.38 1.5 41.2 5.04 13 14.5 24.74 27.88 34.18 2.72 1.93 4.33 3.82 5.07 6.12.75 2.3.54 4.67-.34 7.61-1.27 4.21-2.16 8.5-3.1 13.1l1.28-.8c5.96-3.79 11.45-7.27 17.45-10.66a14.87 14.87 0 0 1 4.85-1.64 22.4 22.4 0 0 1 5.55-.22c5.76.48 11.74 1.27 18 2.08l3.85.5c-.5-11.06 1-21.18 4.43-30.46 3.84-10.33 10.06-19.57 18.62-27.86a83.58 83.58 0 0 1 28.14-18.1z"></path> <path d="M413.39 166.22c-1.41 0-2.73.58-3.71 1.53a5.46 5.46 0 0 0-.22 7.72 5.28 5.28 0 0 0 3.84 1.65c1.5 0 2.83-.55 3.8-1.47a5.33 5.33 0 0 0 1.62-3.69v-.17a5.6 5.6 0 0 0-1.5-3.89 5.28 5.28 0 0 0-3.66-1.67h-.17zm-8-2.93a11.48 11.48 0 0 1 8.03-3.24H413.78c3.14.12 5.94 1.48 7.94 3.62a11.75 11.75 0 0 1 3.17 8.51 11.47 11.47 0 0 1-11.6 11.12h-.44a11.43 11.43 0 0 1-7.87-3.57 11.61 11.61 0 0 1-3.17-8.51c.12-3.1 1.49-5.91 3.58-7.93zM364.93 177.18c1.5 0 2.86-.58 3.86-1.53 1-.95 1.63-2.25 1.69-3.7v-.2a5.5 5.5 0 0 0-5.72-5.54c-1.44.05-2.78.7-3.76 1.7-.98 1.01-1.6 2.35-1.6 3.78V171.9a5.55 5.55 0 0 0 5.53 5.28zm8.12 2.95a11.76 11.76 0 0 1-19.82-8.02v-.45c0-3.1 1.29-5.96 3.34-8.06a11.76 11.76 0 0 1 8.83-3.57 11.68 11.68 0 0 1 11.26 11.73V172.18a11.57 11.57 0 0 1-3.6 7.95z"></path> <path stroke="#FFF" stroke-width="3.78" stroke-miterlimit="10" d="M441.64 263.43c-2.39-1.06-4.6-2.23-6.8-3.38-4.57-2.42-9.04-4.77-13.36-5.23-3.56-.37-7.57.78-11.62 1.95-3.16.9-6.35 1.82-9.71 2.16-11.82 1.21-23.04.15-33.5-3.26-10.29-3.36-19.83-9-28.45-16.98a73.9 73.9 0 0 1-11.73-13.76c-8.11-12.37-11.45-26.18-10.2-39.67 1.23-13.46 7.04-26.58 17.22-37.58a78.29 78.29 0 0 1 14.63-12.31c16.98-11.13 37.89-14.84 57.53-11.91 19.68 2.93 38.14 12.53 50.16 28.03 10.6 13.65 15.23 29.58 13.96 44.95-1.27 15.24-8.33 29.91-21.15 41.29-3.14 2.78-5.24 5.24-6.01 7.73-.7 2.29-.26 4.9 1.57 8.24.8 1.46 1.08 2.94 1.37 4.48.1.52.2 1.05.35 1.67l1.55 6.16-5.81-2.58zm-19.53-14.76c5.52.58 10.48 3.2 15.59 5.88-1.78-4.02-2.04-7.53-1-10.9 1.14-3.74 3.86-7.03 7.82-10.54 11.56-10.26 17.93-23.47 19.07-37.17 1.14-13.88-3.07-28.28-12.68-40.67-11-14.18-27.98-22.98-46.16-25.69-18.22-2.7-37.58.7-53.25 10.97a72.3 72.3 0 0 0-13.48 11.32c-9.23 9.98-14.5 21.82-15.6 33.95-1.12 12.11 1.9 24.54 9.23 35.73 2.91 4.45 6.5 8.7 10.73 12.61a70.58 70.58 0 0 0 26.19 15.62c9.63 3.14 20 4.12 30.95 3 2.76-.28 5.7-1.13 8.64-1.97 4.61-1.32 9.19-2.63 13.95-2.14z"></path> </g> </svg> 